# xmcd
#
# Track frame offsets:
#	182
#	13750
#	20910
#	33740
#	45405
#	63467
#	73792
#	85227
#	99747
#	112117
#	124725
#	135907
#	149005
#	163955
#	175587
#	187860
#	206235
#	224597
#	236377
#	250877
#	264657
#	278307
#	294095
#	311245
#	322347
#
# Disc length: 4519
#
# Revision: 2
# Processed by: cddbd v1.5.1PL0 Copyright (c) Steve Scherf et al.
# Submitted via: EasyCDDAExtractor 5.1.0
# Normalized: r1:DSETVAR1
#
DISCID=8311a519
DTITLE=Various Artist - Beach Beat Classics Volume 3
DYEAR=1991
DGENRE=Beach
TTITLE0=Embers - I Love Beach Music
TTITLE1=Maurice Williams and The Zodiacs - Stay
TTITLE2=Jewell and The Rubies - Kidnapper
TTITLE3=O'Jays - Lonely Drifter
TTITLE4=Love Committee - Cheaters Never Win
TTITLE5=Clifford Curry - We're Gonna Hate Ourselves In The Morning
TTITLE6=Barbara Lewis - Make Me Your Baby
TTITLE7=Razzy and The Neighborhood Kids - I Hate, Hate
TTITLE8=Esquires - And Get Away
TTITLE9=Poor Souls - Brazil
TTITLE10=Clifford Curry - She Shot A Hole In My Soul
TTITLE11=Chris Bartley - Sweetest Thing This Side Of Heaven, The
TTITLE12=Fantastic Shakers - Walk With Me Talk With Me
TTITLE13=Wilbert Harrison - Don't Drop It
TTITLE14=Fiestas - Broken Heart
TTITLE15=Johnny Adams - She Said The Same Things To Me
TTITLE16=Chi Lites - Tired Of Being Alone
TTITLE17=Rosco Gordan - Surely I Love You
TTITLE18=Jimmy James and The Vagabonds - Come To Me Softly
TTITLE19=Leon Martin and Jimmy Hall - Stepping Up In Class
TTITLE20=Chris Bartley - Baby Its Wonderful
TTITLE21=Janice - I Told You So
TTITLE22=Leon Martin and Jimmy Hall - Goin To Get My Baby
TTITLE23=Chris Bartley - Baby I'm Yours
TTITLE24=Impressions - Something Said Love
EXTD=
EXTT0=
EXTT1=
EXTT2=
EXTT3=
EXTT4=
EXTT5=
EXTT6=
EXTT7=
EXTT8=
EXTT9=
EXTT10=
EXTT11=
EXTT12=
EXTT13=
EXTT14=
EXTT15=
EXTT16=
EXTT17=
EXTT18=
EXTT19=
EXTT20=
EXTT21=
EXTT22=
EXTT23=
EXTT24=
PLAYORDER=
